<?xml version="1.0" encoding="UTF-8"?>
<svg id="Layer_1" data-name="Layer 1" xmlns="http://www.w3.org/2000/svg" viewBox="0 0 2261.42 512">
  <defs>
    <style>
      .cls-1 {
        fill: #4f46e5;
      }
    </style>
  </defs>
  <path class="cls-1" d="M83.76,332.68V55.39h65.62v277.29h-65.62Z"/>
  <path class="cls-1" d="M383.44,177.43v155.25h-63.22v-144.45c0-22.4-7.6-28.41-20-28.41-14.01,0-25.61,10-36.82,27.61v145.24h-63.22V120.21h55.22l4.4,25.21c18-21.21,38.41-32.01,64.82-32.01,36.81,0,58.82,23.61,58.82,64.02Z"/>
  <path class="cls-1" d="M595.88,139.42l-27.6,38.01c-13.21-10.81-25.61-15.6-40.01-15.6-27.21,0-42.81,18.4-42.81,66.02s16.81,61.62,42.02,61.62c15.2,0,25.61-4.8,39.61-15.6l28.81,40.41c-19.6,15.6-42.41,25.2-71.62,25.2-65.22,0-105.23-44.01-105.23-111.23s40.41-114.83,104.03-114.83c29.6,0,52.41,8.8,72.82,26.01Z"/>
  <path class="cls-1" d="M814.73,226.64c0,68.02-39.21,112.83-104.03,112.83s-104.02-41.61-104.02-113.23,39.21-112.83,104.02-112.83,104.03,41.61,104.03,113.23ZM672.29,226.24c0,47.22,12.8,66.82,38.41,66.82s38.41-20.41,38.41-66.42-12.8-66.82-38.41-66.82-38.41,20.41-38.41,66.42Z"/>
  <path class="cls-1" d="M986.76,141.02c26.8,11.6,40.01,27.21,40.01,54.82,0,41.21-34.02,71.22-89.23,71.22-8.81,0-16.81-.8-24.41-2.4-4.4,2.4-6.8,7.2-6.8,12.01,0,6.4,2.8,12.8,23.21,12.8h32.01c49.61,0,81.23,26.01,81.23,61.62,0,43.61-38.41,70.42-111.24,70.42-80.42,0-101.62-26.41-101.62-68.41h56.81c0,18.4,8,26.41,46.41,26.41s46.01-10.4,46.01-24c0-12.4-9.21-20.8-30.41-20.8h-30.81c-46.41,0-65.22-19.21-65.22-42.02,0-15.6,10-31.21,25.2-40.81-27.2-14.4-38-33.21-38-60.82,0-48.01,37.61-77.62,93.22-77.62,47.21,1.2,74.42-12.4,100.03-27.61l14.81,46.82c-14.81,6-34.41,8.4-61.22,8.4ZM902.74,190.23c0,23.21,12.8,36.01,32.01,36.01,20.8,0,32.01-12.4,32.01-36.81s-10.8-34.41-32.01-34.41c-19.61,0-32.01,13.21-32.01,35.21Z"/>
  <path class="cls-1" d="M1256.01,177.43v155.25h-63.22v-144.45c0-22.4-7.6-28.41-20-28.41-14.01,0-25.61,10-36.82,27.61v145.24h-63.22V120.21h55.22l4.4,25.21c18-21.21,38.41-32.01,64.82-32.01,36.81,0,58.82,23.61,58.82,64.02Z"/>
  <rect class="cls-1" x="1361.95" y="195.68" width="63.22" height="137"/>
  <path class="cls-1" d="M1558.74,339.47c-46.81-.4-69.62-26.8-69.62-76.82v-98.43h-30.01v-44.01h30.01v-46.01l63.21-7.2v53.22h48.82l-6.8,44.01h-42.02v97.63c0,20.41,6.8,27.61,20.01,27.61,7.2,0,14.41-2,22.81-7.2l21.2,40.41c-16,11.2-38.41,16.8-57.61,16.8Z"/>
  <rect class="cls-1" x="1298.76" y="120.21" width="63.19" height="63.19"/>
  <path class="cls-1" d="M1888.66,103.81v16.41h50.02l-6.8,44.01h-43.21v168.45h-63.21v-168.45h-32.01v-44.01h32.01v-18.81c0-40.81,26.8-72.42,81.22-72.42,22.01,0,42.42,5.6,58.02,13.6l-17.21,41.22c-12-6-24-8.01-33.21-8.01-18.4,0-25.61,8.01-25.61,28.01Z"/>
  <path class="cls-1" d="M2060.91,483.01l-6.8-44.41s-13.69-78.72-2.08-105.93h-21.61l-64.82-212.47h67.22l38.01,172.05,41.61-172.05h65.22l-67.62,212.86c-16.8,53.62-49.13,149.94-49.13,149.94Z"/>
  <rect class="cls-1" x="1704.02" y="195.68" width="63.22" height="137"/>
  <rect class="cls-1" x="1640.82" y="120.21" width="63.19" height="63.19"/>
</svg>